<svg width="21" height="21" viewBox="0 0 21 21" fill="none" xmlns="http://www.w3.org/2000/svg">
<path d="M10.8972 0.00381308C10.1513 -0.0164167 9.42311 0.0442727 8.72271 0.175766C4.03991 1.06082 0.5 5.17506 0.5 10.1137C0.5 15.0523 4.04244 19.1665 8.72524 20.0515C9.33714 20.1679 9.96927 20.2286 10.614 20.2286C16.3361 20.2286 20.9481 15.4746 20.7205 9.70148C20.5106 4.42403 16.1768 0.145422 10.8972 0.00381308ZM11.0717 18.1929C10.8998 18.2031 10.7885 18.0058 10.8947 17.8693C12.5585 15.7274 13.5522 13.0369 13.5522 10.1137C13.5522 7.19045 12.561 4.49736 10.8947 2.35806C10.7885 2.22151 10.8972 2.02427 11.0692 2.03438C15.3272 2.27208 18.7053 5.79712 18.7053 10.1137C18.7053 14.4302 15.3297 17.9552 11.0717 18.1929Z" fill="#101010"/>
</svg>
