<svg width="129" height="31" viewBox="0 0 129 31" fill="none" xmlns="http://www.w3.org/2000/svg">
<path fill-rule="evenodd" clip-rule="evenodd" d="M15.5679 0.217609C14.451 0.187396 13.3606 0.278036 12.3119 0.474422C5.30034 1.79626 0 7.94089 0 15.3167C0 22.6926 5.30413 28.8372 12.3157 30.159C13.2319 30.3328 14.1784 30.4234 15.1438 30.4234C23.7115 30.4234 30.617 23.3233 30.2763 14.7011C29.9621 6.81922 23.4729 0.429102 15.5679 0.217609ZM15.8291 27.3832C15.5716 27.3983 15.4051 27.1037 15.5641 26.8998C18.0552 23.7009 19.5431 19.6826 19.5431 15.3167C19.5431 10.9509 18.059 6.92875 15.5641 3.73369C15.4051 3.52975 15.5679 3.23517 15.8253 3.25027C22.2009 3.60528 27.2589 8.86995 27.2589 15.3167C27.2589 21.7635 22.2046 27.0282 15.8291 27.3832Z" fill="#101010"/>
<path d="M43.286 26.3611H50.1956C56.3686 26.3611 61.3729 21.3695 61.3729 15.2122C61.3729 9.0548 56.3686 4.06327 50.1956 4.06327H43.286V7.50929H50.1956C54.4606 7.50929 57.9181 10.958 57.9181 15.2122C57.9181 19.4664 54.4606 22.9151 50.1956 22.9151H43.286V26.3611Z" fill="#101010"/>
<path d="M93.5406 26.1105C94.6326 26.4907 95.8636 26.6808 97.2338 26.6808C98.8924 26.6808 100.329 26.4291 101.545 25.9256C102.771 25.4118 103.714 24.6565 104.373 23.6598C105.043 22.6528 105.377 21.4248 105.377 19.9759C105.377 18.5887 105.074 17.4789 104.466 16.6466C103.868 15.8143 103.039 15.1618 101.978 14.6891C100.917 14.2164 99.5105 13.7643 97.7592 13.3327C96.6363 13.0552 95.7555 12.7881 95.1168 12.5312C94.478 12.264 93.9939 11.9301 93.6642 11.5293C93.3345 11.1183 93.1697 10.5942 93.1697 9.95712C93.1697 9.30975 93.3397 8.75486 93.6796 8.29245C94.0196 7.83004 94.5038 7.48067 95.1322 7.24433C95.7709 6.99771 96.5126 6.8744 97.3574 6.8744C98.1095 6.8744 98.8048 7.00285 99.4435 7.25974C100.082 7.50636 100.639 7.87115 101.112 8.3541C101.586 8.82679 101.957 9.39195 102.225 10.0496L105.084 8.21539C104.703 7.2803 104.157 6.47879 103.446 5.81086C102.735 5.13267 101.859 4.61375 100.819 4.2541C99.7886 3.89445 98.6194 3.71462 97.3111 3.71462C95.7864 3.71462 94.442 3.97151 93.2779 4.4853C92.1138 4.98881 91.202 5.73894 90.5427 6.73568C89.8937 7.72215 89.5692 8.92441 89.5692 10.3425C89.5692 11.5961 89.8525 12.6288 90.4191 13.4406C90.9857 14.2421 91.7789 14.8843 92.7988 15.3673C93.829 15.84 95.1786 16.2818 96.8475 16.6929C98.0116 16.9806 98.9233 17.2632 99.5826 17.5406C100.252 17.818 100.762 18.1777 101.112 18.6195C101.473 19.0614 101.653 19.6471 101.653 20.3767C101.653 21.0241 101.473 21.579 101.112 22.0414C100.762 22.4935 100.252 22.8429 99.5826 23.0895C98.913 23.3361 98.1094 23.4594 97.172 23.4594C96.2757 23.4594 95.467 23.3053 94.7459 22.997C94.0351 22.6887 93.4221 22.2726 92.907 21.7485C92.4022 21.2244 91.9953 20.6182 91.6862 19.9297L88.7347 21.7947C89.2498 22.8429 89.904 23.7317 90.6973 24.4613C91.5008 25.1806 92.4486 25.7303 93.5406 26.1105Z" fill="#101010"/>
<path d="M70.3191 25.7623C71.6377 26.4199 73.2499 26.7488 75.1558 26.7488C77.0513 26.7488 78.6584 26.4199 79.9771 25.7623C81.2957 25.0944 82.2847 24.1439 82.944 22.9108C83.6033 21.6777 83.933 20.1929 83.933 18.4563V4.15248H80.3634V18.2559C80.3634 20.0541 79.9256 21.4003 79.0499 22.2942C78.1742 23.1882 76.8762 23.6352 75.1558 23.6352C73.4354 23.6352 72.1322 23.1882 71.2462 22.2942C70.3706 21.4003 69.9327 20.0541 69.9327 18.2559V4.15248H66.3477V18.4563C66.3477 20.1723 66.6825 21.652 67.3521 22.8954C68.0218 24.1387 69.0107 25.0944 70.3191 25.7623Z" fill="#101010"/>
<path d="M110.902 26.3788V4.15248H114.472V14.1867H114.503C114.699 13.9709 114.915 13.7449 115.152 13.5085C115.399 13.2619 115.652 13.005 115.909 12.7378L124.47 4.15248H128.843L119.602 13.5239L128.689 26.3788H124.485L117.114 15.7897L114.472 18.333V26.3788H110.902Z" fill="#101010"/>
</svg>
