<svg width="280" height="150" viewBox="0 0 280 150" fill="none" xmlns="http://www.w3.org/2000/svg">
<g style="mix-blend-mode:difference">
<mask id="mask0_1022_9421" style="mask-type:luminance" maskUnits="userSpaceOnUse" x="0" y="1" width="95" height="149">
<path d="M12.7411 24.8339C9.17755 26.831 5.72218 28.538 2.0152 30.1305C0.886471 30.6154 -0.0445397 29.1478 0.871006 28.3283C1.4693 27.7928 2.39883 27.3781 3.1227 26.7708C5.0047 25.1918 4.63606 23.7757 5.93781 22.1341C6.50388 21.4202 7.86031 21.3341 8.42488 20.619C8.88732 20.0333 8.60978 18.7292 9.09169 18.2087C10.1802 17.0329 9.08319 17.5986 10.5558 16.6952C11.5494 16.0856 13.1673 16.4658 14.119 15.7956C15.5219 14.8076 16.0284 12.5615 17.4582 11.6217C18.8283 10.7211 21.2767 10.6447 22.8799 10.6229C27.5528 10.5594 31.57 12.8456 36.2131 12.4834C38.063 12.3391 39.5341 11.8586 41.3454 11.5368C43.8145 11.0983 44.5214 11.5734 46.9548 12.4867C48.2696 12.9802 50.0526 15.0272 50.5932 11.7911C50.9759 9.49994 47.6549 8.81718 51.0018 6.87025C55.3092 4.3645 57.5896 10.0244 61.4192 10.5129C67.1057 11.2381 63.683 3.64388 67.9732 3.9411C70.2064 4.09582 71.0503 6.78045 73.3835 6.05221C75.2291 5.47616 75.4758 3.53543 77.3564 2.56044C80.7464 0.802909 84.9753 1.13053 88.8518 1.2953C89.4808 1.32205 89.6699 2.16297 89.1131 2.45689C86.3832 3.89795 83.7227 5.33892 81.156 6.70206C75.83 9.53065 81.2439 10.7263 83.3494 13.6866C85.8017 17.1347 82.9115 19.3725 79.043 18.5575C75.7936 17.8728 77.4729 17.2887 75.1429 15.4431C73.6098 14.2286 71.6226 14.8702 69.9547 15.1172C66.6724 15.6033 62.0356 16.499 60.5894 19.9994C59.84 21.8134 60.4344 23.7831 61.5131 24.9973C63.406 27.1282 64.416 26.229 66.463 24.5992C67.7174 23.6004 68.6984 21.9702 70.1498 21.3931C73.3587 20.1174 73.5877 21.8994 75.7033 23.4253C78.6551 25.5542 83.4015 23.3949 84.0585 27.8767C84.2448 29.1475 83.4952 30.5381 83.6208 31.8192C83.7172 32.8023 84.5544 33.7769 84.5844 34.7399C84.6453 36.6936 84.0364 38.6385 81.8288 38.2159C79.0555 37.685 80.6283 34.9678 78.8964 33.4031C77.7578 32.3743 74.3527 32.6888 73.0316 33.1683C75.5796 37.6308 75.6473 40.0618 70.1578 40.9158C68.9123 41.1095 66.3654 40.9286 65.3835 41.4999C63.8385 42.3989 63.4175 45.5797 62.011 46.7603C60.4558 48.0655 56.8123 47.8087 55.5544 49.3675C54.5303 50.6365 55.4757 54.4872 55.0289 56.0989C53.3238 62.2492 51.6316 56.7681 49.2547 55.3822C47.8337 54.5537 45.2507 54.8166 43.7844 55.1891C41.2047 55.8446 39.8553 56.9012 39.1741 58.8307C38.8409 59.7745 38.2115 64.7484 38.3097 65.576C38.6333 68.3045 39.2739 67.6157 41.4788 66.9754C42.676 66.6277 45.3191 64.1556 46.5225 64.5103C48.8649 65.2006 46.9867 68.3023 47.6955 69.3231C48.193 70.0394 50.0122 69.8555 50.6382 70.4801C51.2675 71.1078 51.0145 71.851 51.449 72.7273C52.3524 74.5495 52.5595 75.6708 53.9122 77.4227C57.629 74.5002 59.4885 74.6619 63.9411 75.5445C65.2011 75.7943 67.7526 75.6043 68.8567 76.0315C70.5455 76.6848 71.0996 79.4894 72.6408 80.5077C74.0418 81.4336 76.6814 80.6139 78.0045 81.5966C79.3922 82.6272 78.9247 85.5104 80.106 86.8163C81.0777 87.8905 83.3523 87.7086 84.6439 88.4569C86.209 89.3637 87.1865 91.0745 88.808 91.9382C93.2403 94.2989 96.1583 94.2768 92.6788 99.5499C91.8143 100.86 91.0006 101.951 90.5647 103.377C89.9319 105.446 91.0158 108.841 89.9387 110.686C89.0992 112.124 86.4449 112.41 85.2708 113.651C83.9525 115.044 83.8519 116.489 83.3537 118.566C83.033 119.904 82.8922 122.079 82.0381 123.098C80.5175 124.913 78.4089 124.29 77.4845 126.533C77.0939 127.482 77.706 129.174 77.137 130.012C76.5908 130.815 74.6813 130.913 73.9987 131.582C72.0742 133.469 73.396 134.589 73.5704 137.59C73.6803 139.48 72.7691 141.662 73.0706 143.46C73.3774 145.289 75.1311 147.382 76.0813 149.028C73.4425 150.645 69.5514 147.741 67.8499 145.825C64.8087 142.4 66.3119 140.698 65.5709 136.639C65.0417 133.741 62.9886 131.203 62.5922 128.27C62.0072 123.943 62.5922 119.11 62.5922 114.746C62.5922 110.485 62.7179 110.522 59.4838 107.591C56.4673 104.857 55.6866 103.242 53.9824 99.4517C52.3097 95.7318 50.8485 94.0991 51.9446 90.2951C52.9684 86.7417 54.1059 83.4124 54.7333 79.7705C50.8238 79.6482 49.487 79.9797 46.5303 77.4646C43.8688 75.2006 41.4267 72.5954 38.2631 71.1993C33.8058 69.2324 32.2455 70.2733 30.3243 65.7414C29.7902 64.4815 29.38 62.3316 28.4588 61.3409C27.3345 60.1317 24.6158 60.0755 23.6318 58.757C22.0453 56.6314 23.071 51.9643 22.2421 49.3675C21.3924 46.7053 18.0697 43.8834 19.4746 40.8802C20.2549 39.2122 23.3031 38.44 23.9539 36.7255C24.3616 35.6515 23.1617 34.2286 23.2978 33.0509C23.5633 30.7533 24.8489 30.8121 24.3013 28.699C23.8376 26.9093 21.4157 25.9183 23.4151 24.1296C18.679 23.1211 17.309 23.1716 12.7411 24.8339Z" fill="white"/>
</mask>
<g mask="url(#mask0_1022_9421)">
<path d="M1.3698 -97.7526H1.12V260.744H1.3698V-97.7526Z" fill="#000"/>
<path d="M3.2708 -97.7526H3.021V260.744H3.2708V-97.7526Z" fill="#000"/>
<path d="M5.16729 -97.7526H4.91748V260.744H5.16729V-97.7526Z" fill="#000"/>
<path d="M7.06841 -97.7526H6.8186V260.744H7.06841V-97.7526Z" fill="#000"/>
<path d="M8.96941 -97.7526H8.7196V260.744H8.96941V-97.7526Z" fill="#000"/>
<path d="M10.8659 -97.7526H10.6161V260.744H10.8659V-97.7526Z" fill="#000"/>
<path d="M12.767 -97.7526H12.5172V260.744H12.767V-97.7526Z" fill="#000"/>
<path d="M14.668 -97.7526H14.4182V260.744H14.668V-97.7526Z" fill="#000"/>
<path d="M16.5691 -97.7526H16.3193V260.744H16.5691V-97.7526Z" fill="#000"/>
<path d="M18.4656 -97.7526H18.2158V260.744H18.4656V-97.7526Z" fill="#000"/>
<path d="M20.3666 -97.7526H20.1168V260.744H20.3666V-97.7526Z" fill="#000"/>
<path d="M22.2676 -97.7526H22.0178V260.744H22.2676V-97.7526Z" fill="#000"/>
<path d="M24.1641 -97.7526H23.9143V260.744H24.1641V-97.7526Z" fill="#000"/>
<path d="M26.0652 -97.7526H25.8154V260.744H26.0652V-97.7526Z" fill="#000"/>
<path d="M27.9662 -97.7526H27.7164V260.744H27.9662V-97.7526Z" fill="#000"/>
<path d="M29.8672 -97.7526H29.6174V260.744H29.8672V-97.7526Z" fill="#000"/>
<path d="M31.7637 -97.7526H31.5139V260.744H31.7637V-97.7526Z" fill="#000"/>
<path d="M33.6648 -97.7526H33.415V260.744H33.6648V-97.7526Z" fill="#000"/>
<path d="M35.566 -97.7526H35.3162V260.744H35.566V-97.7526Z" fill="#000"/>
<path d="M37.467 -97.7526H37.2172V260.744H37.467V-97.7526Z" fill="#000"/>
<path d="M39.3635 -97.7526H39.1136V260.744H39.3635V-97.7526Z" fill="#000"/>
<path d="M41.2645 -97.7526H41.0146V260.744H41.2645V-97.7526Z" fill="#000"/>
<path d="M43.1656 -97.7526H42.9158V260.744H43.1656V-97.7526Z" fill="#000"/>
<path d="M45.0621 -97.7526H44.8123V260.744H45.0621V-97.7526Z" fill="#000"/>
<path d="M46.9631 -97.7526H46.7133V260.744H46.9631V-97.7526Z" fill="#000"/>
<path d="M48.8641 -97.7526H48.6143V260.744H48.8641V-97.7526Z" fill="#000"/>
<path d="M50.7652 -97.7526H50.5154V260.744H50.7652V-97.7526Z" fill="#000"/>
<path d="M52.6617 -97.7526H52.4119V260.744H52.6617V-97.7526Z" fill="#000"/>
<path d="M54.5627 -97.7526H54.3129V260.744H54.5627V-97.7526Z" fill="#000"/>
<path d="M56.4638 -97.7526H56.214V260.744H56.4638V-97.7526Z" fill="#000"/>
<path d="M58.3603 -97.7526H58.1105V260.744H58.3603V-97.7526Z" fill="#000"/>
<path d="M60.2613 -97.7526H60.0115V260.744H60.2613V-97.7526Z" fill="#000"/>
<path d="M62.1624 -97.7526H61.9126V260.744H62.1624V-97.7526Z" fill="#000"/>
<path d="M64.0634 -97.7526H63.8136V260.744H64.0634V-97.7526Z" fill="#000"/>
<path d="M65.9599 -97.7526H65.7101V260.744H65.9599V-97.7526Z" fill="#000"/>
<path d="M67.8609 -97.7526H67.6111V260.744H67.8609V-97.7526Z" fill="#000"/>
<path d="M69.762 -97.7526H69.5122V260.744H69.762V-97.7526Z" fill="#000"/>
<path d="M71.663 -97.7526H71.4132V260.744H71.663V-97.7526Z" fill="#000"/>
<path d="M73.5595 -97.7526H73.3097V260.744H73.5595V-97.7526Z" fill="#000"/>
<path d="M75.4605 -97.7526H75.2107V260.744H75.4605V-97.7526Z" fill="#000"/>
<path d="M77.3616 -97.7526H77.1118V260.744H77.3616V-97.7526Z" fill="#000"/>
<path d="M79.2581 -97.7526H79.0083V260.744H79.2581V-97.7526Z" fill="#000"/>
<path d="M81.1592 -97.7526H80.9094V260.744H81.1592V-97.7526Z" fill="#000"/>
<path d="M83.0602 -97.7526H82.8104V260.744H83.0602V-97.7526Z" fill="#000"/>
<path d="M84.9612 -97.7526H84.7114V260.744H84.9612V-97.7526Z" fill="#000"/>
<path d="M86.8577 -97.7526H86.6079V260.744H86.8577V-97.7526Z" fill="#000"/>
<path d="M88.7588 -97.7526H88.509V260.744H88.7588V-97.7526Z" fill="#000"/>
<path d="M90.6598 -97.7526H90.41V260.744H90.6598V-97.7526Z" fill="#000"/>
<path d="M92.5563 -97.7526H92.3065V260.744H92.5563V-97.7526Z" fill="#000"/>
<path d="M94.4573 -97.7526H94.2075V260.744H94.4573V-97.7526Z" fill="#000"/>
</g>
<mask id="mask1_1022_9421" style="mask-type:luminance" maskUnits="userSpaceOnUse" x="49" y="61" width="15" height="8">
<path d="M52.7378 61.5732C51.7995 61.9254 50.8611 62.2776 49.9227 62.6297C51.8654 66.3559 51.9607 64.2977 55.553 65.3296C57.3161 65.836 60.2606 69.6581 62.4845 68.1468C65.4367 66.1406 60.7229 65.2988 59.4955 64.8967C57.1729 64.1357 54.9305 62.6704 52.7378 61.5732Z" fill="white"/>
</mask>
<g mask="url(#mask1_1022_9421)">
<path d="M49.9902 -117.745H49.7404V240.752H49.9902V-117.745Z" fill="#000"/>
<path d="M51.8912 -117.745H51.6414V240.752H51.8912V-117.745Z" fill="#000"/>
<path d="M53.7876 -117.745H53.5378V240.752H53.7876V-117.745Z" fill="#000"/>
<path d="M55.6888 -117.745H55.439V240.752H55.6888V-117.745Z" fill="#000"/>
<path d="M57.5898 -117.745H57.34V240.752H57.5898V-117.745Z" fill="#000"/>
<path d="M59.4863 -117.745H59.2365V240.752H59.4863V-117.745Z" fill="#000"/>
<path d="M61.3874 -117.745H61.1376V240.752H61.3874V-117.745Z" fill="#000"/>
<path d="M63.2884 -117.745H63.0386V240.752H63.2884V-117.745Z" fill="#000"/>
</g>
<mask id="mask2_1022_9421" style="mask-type:luminance" maskUnits="userSpaceOnUse" x="86" y="0" width="38" height="23">
<path d="M86.1683 7.45933C88.6162 7.45933 91.922 6.58137 93.2061 9.33752C94.523 12.1641 92.103 14.2568 91.4269 16.568C90.6683 19.1615 92.5006 21.8409 95.2073 22.5504C98.8205 23.4975 99.1226 19.9556 101.526 17.9339C103.849 15.9797 105.972 17.3599 108.631 16.0756C110.395 15.2237 111.159 12.6021 112.88 11.3837C113.9 10.662 115.877 10.4993 116.574 9.52012C117.302 8.4976 116.403 6.0113 117.252 5.11164C118.95 3.31298 124.832 5.55083 123.469 1.35529C121.711 1.53634 118.932 2.3459 117.215 1.99951C116.734 1.90246 115.97 2.33616 115.492 2.17701C115.1 2.04606 115.368 0.367428 114.892 0.204854C112.051 -0.765136 106.012 2.00651 102.969 2.33563C99.8811 2.6696 96.392 1.75599 93.4082 2.4145C91.3176 2.87592 85.535 4.87056 86.1683 7.45933Z" fill="white"/>
</mask>
<g mask="url(#mask2_1022_9421)">
<path d="M87.0356 -105.253H86.7858V253.243H87.0356V-105.253Z" fill="#000"/>
<path d="M88.9366 -105.253H88.6868V253.243H88.9366V-105.253Z" fill="#000"/>
<path d="M90.8331 -105.253H90.5833V253.243H90.8331V-105.253Z" fill="#000"/>
<path d="M92.7342 -105.253H92.4844V253.243H92.7342V-105.253Z" fill="#000"/>
<path d="M94.6352 -105.253H94.3854V253.243H94.6352V-105.253Z" fill="#000"/>
<path d="M96.5317 -105.253H96.2819V253.243H96.5317V-105.253Z" fill="#000"/>
<path d="M98.4328 -105.253H98.183V253.243H98.4328V-105.253Z" fill="#000"/>
<path d="M100.334 -105.253H100.084V253.243H100.334V-105.253Z" fill="#000"/>
<path d="M102.235 -105.253H101.985V253.243H102.235V-105.253Z" fill="#000"/>
<path d="M104.131 -105.253H103.882V253.243H104.131V-105.253Z" fill="#000"/>
<path d="M106.032 -105.253H105.783V253.243H106.032V-105.253Z" fill="#000"/>
<path d="M107.933 -105.253H107.684V253.243H107.933V-105.253Z" fill="#000"/>
<path d="M109.83 -105.253H109.58V253.243H109.83V-105.253Z" fill="#000"/>
<path d="M111.731 -105.253H111.481V253.243H111.731V-105.253Z" fill="#000"/>
<path d="M113.632 -105.253H113.382V253.243H113.632V-105.253Z" fill="#000"/>
<path d="M115.533 -105.253H115.283V253.243H115.533V-105.253Z" fill="#000"/>
<path d="M117.429 -105.253H117.18V253.243H117.429V-105.253Z" fill="#000"/>
<path d="M119.331 -105.253H119.081V253.243H119.331V-105.253Z" fill="#000"/>
<path d="M121.232 -105.253H120.982V253.243H121.232V-105.253Z" fill="#000"/>
<path d="M123.133 -105.253H122.883V253.243H123.133V-105.253Z" fill="#000"/>
</g>
<mask id="mask3_1022_9421" style="mask-type:luminance" maskUnits="userSpaceOnUse" x="111" y="15" width="7" height="4">
<path d="M111.504 16.4477V18.3393C111.504 18.6998 111.869 18.945 112.203 18.8083L116.814 16.9168C117.328 16.706 117.178 15.9408 116.622 15.9408H112.01C111.731 15.9408 111.504 16.1678 111.504 16.4477Z" fill="white"/>
</mask>
<g mask="url(#mask3_1022_9421)">
<path d="M111.895 -124.25H111.645V234.246H111.895V-124.25Z" fill="#000"/>
<path d="M113.796 -124.25H113.546V234.246H113.796V-124.25Z" fill="#000"/>
<path d="M115.693 -124.25H115.443V234.246H115.693V-124.25Z" fill="#000"/>
</g>
<mask id="mask4_1022_9421" style="mask-type:luminance" maskUnits="userSpaceOnUse" x="108" y="5" width="153" height="123">
<path d="M260.369 16.6077C259.148 15.7527 258.123 15.0605 256.667 14.7418C253.944 14.1461 250.801 15.3817 248.09 14.7418C243.802 13.7298 242.323 10.3299 237.622 10.8924C231.863 11.5815 228.727 11.4981 223.113 10.1094C218.806 9.04375 214.772 11.5538 211.097 9.75927C208.418 8.45141 208.675 8.10936 205.71 8.54668C202.373 9.03883 201.734 9.94714 199.385 7.88864C196.851 5.66858 198.272 5.8023 195.538 6.01225C192.521 6.24385 188.903 8.11863 186.017 9.03478C184.375 9.55617 182.077 10.8 180.336 10.8384C178.706 10.8743 175.981 8.61909 174.495 9.10733C173.338 9.48748 172.593 12.1119 171.34 12.7852C168.959 14.064 165.122 14.1888 162.494 14.7819C160.791 15.1663 157.887 16.4335 156.24 15.9992C154.022 15.4142 153.04 13.0477 150.658 12.7121C148.384 12.3915 143.116 12.4883 140.993 13.323C139.009 14.103 137.051 16.7049 135.435 18.146C132.759 20.0306 132.435 19.438 133.238 22.0858C133.926 24.3571 134.851 24.786 136.96 25.0131C142.4 25.599 139.827 17.9134 142.725 18.3895C145.788 18.8928 143.774 25.9217 142.239 27.6543C139.281 30.9924 135.292 27.0781 132.095 28.989C130.827 29.7466 130.822 33.2529 128.706 32.4671C128.271 32.3056 127.911 28.9345 127.496 27.9125C126.323 25.0285 124.739 21.1618 121.464 23.2893C120.52 23.9024 117.354 28.6821 117.267 29.789C117.109 31.8063 117.471 31.3846 119.038 31.3365C121.62 31.2571 121.111 29.3415 123.471 31.2823C124.041 31.7506 123.179 33.2644 123.861 33.7584C124.39 34.141 126.52 33.7584 127.225 33.7584C126.633 34.7308 125.866 35.7259 125.558 36.8001C125.378 37.428 125.805 39.3161 125.348 39.745C124.813 40.2475 122.572 39.5443 121.879 39.745C119.891 40.3207 121.048 39.4675 119.753 41.171C118.536 42.7729 118.361 45.1272 118.781 46.9899C119.026 48.0762 120.152 48.6449 119.944 49.6141C119.685 50.8134 117.384 51.4976 116.903 52.6575C115.522 55.9833 117.806 55.7254 114.673 58.1427C112.301 59.9728 111.151 60.1376 110.568 62.7066C110.039 65.042 110.782 67.3337 110.021 69.6306C109.035 72.6074 107.545 73.2815 109.667 75.7006C111.11 77.3454 113.578 78.1522 115.183 79.6591C117.479 81.8144 117.559 83.948 120.866 83.8821C122.967 83.8402 124.806 81.7725 126.742 82.0083C128.801 82.259 130.216 84.7688 132.067 85.6309C135.618 87.284 133.913 85.619 134.802 90.0419C135.312 92.5733 137.455 94.4649 138.107 96.9326C138.653 98.9995 137.677 101.257 137.336 103.446C136.937 106.01 137.13 106.986 137.856 109.602C139.108 114.112 140.327 118.861 141.209 123.418C141.779 126.361 140.663 126.565 143.998 127.021C146.656 127.385 148.889 126.703 151.032 124.839C152.845 123.262 152.926 120.734 154.419 118.841C155.366 117.64 158.102 116.913 158.478 115.76C159.165 113.652 157.132 112.058 158.242 109.897C159.346 107.748 163.266 105.923 163.821 103.603C164.236 101.87 162.115 98.4719 161.87 96.721C161.57 94.5828 161.577 93.253 163.009 91.2742C166.282 86.7503 171.266 84.9284 172.852 79.1171C173.395 77.125 173.658 75.6383 171.83 74.8434C169.86 73.9866 165.172 75.5599 168.572 71.6153C171.217 68.5465 178.057 71.4959 179.604 66.1612C180.92 61.621 177.287 61.6653 174.372 60.8813C172.542 60.3893 167.943 58.54 167.766 56.2483C167.492 52.7042 170.713 53.9043 172.325 54.9465C174.234 56.1809 175.684 57.5032 177.934 57.9991C181.85 58.8622 183.152 57.4392 185.638 60.7571C186.287 61.6225 186.857 62.657 187.737 63.1918C188.777 63.8242 191.165 63.4018 191.972 64.2787C193.258 65.6753 192.275 70.1606 192.911 72.0261C193.779 74.5738 195.708 77.065 197.016 79.4214C199.061 77.4325 197.729 75.8786 198.424 73.513C198.934 71.7736 200.489 70.6108 201.843 69.2217C204.885 66.1006 208.652 59.8403 210.584 66.39C210.805 67.1404 211.066 69.5225 211.656 70.0275C212.229 70.518 213.653 69.8964 214.072 70.302C215.282 71.4725 214.504 74.827 215.141 76.7433C215.773 78.6456 217.469 80.292 218.71 81.922C220.608 84.4151 220.614 84.7209 223.76 84.469C221.896 81.9088 216.962 77.6052 217.778 74.1391C220.015 74.4521 220.892 77.1124 222.587 77.4259C224.654 77.8082 225.887 75.5356 225.519 73.6695C224.96 70.8335 218.281 66.4781 224.521 64.8786C226.616 64.3416 228.313 65.549 230.057 64.3483C231.614 63.2769 232.668 60.8689 233.026 59.1938C233.953 54.8648 228.955 50.9416 229.777 47.7403C231.227 42.0899 235.71 52.0131 238.07 50.6619C240.205 49.4391 238.106 47.0998 237.668 45.7056C236.422 41.7366 237.999 44.4371 239.712 41.0363C240.176 40.1153 239.243 38.4833 239.712 37.5654C240.042 36.9196 241.342 36.7921 241.604 36.2161C242.209 34.882 242.607 32.7523 241.337 30.8498C239.602 28.2515 231.478 27.553 232.806 24.5619C234.111 21.6245 237.807 24.3112 239.772 23.8525C241.635 23.4173 242.171 20.3161 244.345 20.846C246.724 21.4257 245.056 25.5243 245.882 27.4507C246.478 28.8408 248.177 29.9809 249.659 31.0114C250.294 31.4533 251.175 31.1679 251.431 30.4371C252.454 27.511 251.728 26.4733 250.11 23.4178C249.821 22.8731 250.093 22.1994 250.679 22.0081L254.543 20.7453C254.958 20.6096 255.17 20.149 255.003 19.7451L254.182 17.76C254.065 17.4762 254.323 17.1798 254.62 17.2595C256.363 17.7275 258.877 18.6584 260.308 17.8606C260.785 17.5951 260.816 16.9205 260.369 16.6077ZM149.856 39.1928C149.925 37.6875 150.634 36.9749 151.622 35.6365C155.268 34.7625 152.996 36.862 154.896 37.7164C155.991 38.209 157.648 37.5004 159.012 37.8668C161.348 38.4941 164.163 42.2077 161.141 43.3187C159.943 43.7589 158.265 42.5835 157.098 42.2011C155.152 41.563 154.335 42.0313 152.59 41.6819C150.772 41.3178 149.695 42.6695 149.856 39.1928ZM154.257 52.1626C151.946 52.0099 149.176 51.3454 146.905 51.6768C145.377 51.8997 144.551 52.7724 143.064 53.1661C141.342 53.622 138.742 53.234 137.074 52.0302C135.802 51.1122 135.853 49.4799 134.68 48.5875C131.996 46.5443 126.288 49.0562 123.471 49.6054C121.329 47.3126 125.286 46.9945 126.455 46.297C128.087 45.3233 128.706 44.6811 130.156 43.0922C133.349 39.5925 135.741 39.8096 139.456 42.4924C142.44 44.6475 145.568 43.1876 148.257 44.9026C150.072 46.0601 150.44 48.1536 152.481 48.5626C154.038 48.8747 157.051 47.129 158.425 47.8446C160.199 48.7678 160.158 50.5749 159.188 51.601C157.895 52.9678 155.985 52.2769 154.257 52.1626ZM163.49 73.0826C161.499 71.6356 162.149 70.04 161.092 68.0735C160.404 66.7933 158.859 66.1913 158.115 64.9535C157.238 63.4921 157.897 62.7212 157.404 60.9402C157.06 59.6944 155.642 58.274 154.905 57.2355C154.645 53.3344 156.896 55.2711 158.184 56.6342C158.931 57.4245 160.208 58.8408 160.639 59.8756C160.916 60.5389 160.495 61.498 160.773 62.1327C162.676 66.4718 165.279 67.8135 163.49 73.0826ZM167.114 44.1665C166.711 41.8992 167.824 42.0749 166.736 40.1272C165.791 38.4368 164.033 38.8577 164.76 36.3408C167.344 35.0475 167.57 34.946 169.896 36.1453C170.06 36.2299 170.086 36.4518 169.949 36.5751C169.645 36.8475 169.388 37.2058 169.041 37.3972C171.675 38.7796 169.85 39.9223 170.272 41.9166C170.565 43.2981 172.536 45.1836 173.322 46.3186C171.153 48.6707 167.476 46.2003 167.114 44.1665Z" fill="white"/>
</mask>
<g mask="url(#mask4_1022_9421)">
<path d="M109.565 -106.248H109.316V252.249H109.565V-106.248Z" fill="#000"/>
<path d="M111.462 -106.248H111.212V252.249H111.462V-106.248Z" fill="#000"/>
<path d="M113.363 -106.248H113.113V252.249H113.363V-106.248Z" fill="#000"/>
<path d="M115.264 -106.248H115.014V252.249H115.264V-106.248Z" fill="#000"/>
<path d="M117.161 -106.248H116.911V252.249H117.161V-106.248Z" fill="#000"/>
<path d="M119.062 -106.248H118.812V252.249H119.062V-106.248Z" fill="#000"/>
<path d="M120.963 -106.248H120.713V252.249H120.963V-106.248Z" fill="#000"/>
<path d="M122.864 -106.248H122.614V252.249H122.864V-106.248Z" fill="#000"/>
<path d="M124.76 -106.248H124.51V252.249H124.76V-106.248Z" fill="#000"/>
<path d="M126.661 -106.248H126.411V252.249H126.661V-106.248Z" fill="#000"/>
<path d="M128.562 -106.248H128.312V252.249H128.562V-106.248Z" fill="#000"/>
<path d="M130.463 -106.248H130.214V252.249H130.463V-106.248Z" fill="#000"/>
<path d="M132.36 -106.248H132.11V252.249H132.36V-106.248Z" fill="#000"/>
<path d="M134.261 -106.248H134.011V252.249H134.261V-106.248Z" fill="#000"/>
<path d="M136.162 -106.248H135.912V252.249H136.162V-106.248Z" fill="#000"/>
<path d="M138.058 -106.248H137.809V252.249H138.058V-106.248Z" fill="#000"/>
<path d="M139.96 -106.248H139.71V252.249H139.96V-106.248Z" fill="#000"/>
<path d="M141.861 -106.248H141.611V252.249H141.861V-106.248Z" fill="#000"/>
<path d="M143.762 -106.248H143.512V252.249H143.762V-106.248Z" fill="#000"/>
<path d="M145.658 -106.248H145.408V252.249H145.658V-106.248Z" fill="#000"/>
<path d="M147.559 -106.248H147.309V252.249H147.559V-106.248Z" fill="#000"/>
<path d="M149.46 -106.248H149.21V252.249H149.46V-106.248Z" fill="#000"/>
<path d="M151.357 -106.248H151.107V252.249H151.357V-106.248Z" fill="#000"/>
<path d="M153.258 -106.248H153.008V252.249H153.258V-106.248Z" fill="#000"/>
<path d="M155.159 -106.248H154.909V252.249H155.159V-106.248Z" fill="#000"/>
<path d="M157.06 -106.248H156.81V252.249H157.06V-106.248Z" fill="#000"/>
<path d="M158.956 -106.248H158.707V252.249H158.956V-106.248Z" fill="#000"/>
<path d="M160.857 -106.248H160.608V252.249H160.857V-106.248Z" fill="#000"/>
<path d="M162.758 -106.248H162.509V252.249H162.758V-106.248Z" fill="#000"/>
<path d="M164.655 -106.248H164.405V252.249H164.655V-106.248Z" fill="#000"/>
<path d="M166.556 -106.248H166.306V252.249H166.556V-106.248Z" fill="#000"/>
<path d="M168.457 -106.248H168.207V252.249H168.457V-106.248Z" fill="#000"/>
<path d="M170.358 -106.248H170.108V252.249H170.358V-106.248Z" fill="#000"/>
<path d="M172.255 -106.248H172.005V252.249H172.255V-106.248Z" fill="#000"/>
<path d="M174.156 -106.248H173.906V252.249H174.156V-106.248Z" fill="#000"/>
<path d="M176.057 -106.248H175.807V252.249H176.057V-106.248Z" fill="#000"/>
<path d="M177.958 -106.248H177.708V252.249H177.958V-106.248Z" fill="#000"/>
<path d="M179.854 -106.248H179.604V252.249H179.854V-106.248Z" fill="#000"/>
<path d="M181.755 -106.248H181.505V252.249H181.755V-106.248Z" fill="#000"/>
<path d="M183.656 -106.248H183.406V252.249H183.656V-106.248Z" fill="#000"/>
<path d="M185.553 -106.248H185.303V252.249H185.553V-106.248Z" fill="#000"/>
<path d="M187.454 -106.248H187.204V252.249H187.454V-106.248Z" fill="#000"/>
<path d="M189.355 -106.248H189.105V252.249H189.355V-106.248Z" fill="#000"/>
<path d="M191.256 -106.248H191.006V252.249H191.256V-106.248Z" fill="#000"/>
<path d="M193.152 -106.248H192.903V252.249H193.152V-106.248Z" fill="#000"/>
<path d="M195.054 -106.248H194.804V252.249H195.054V-106.248Z" fill="#000"/>
<path d="M196.955 -106.248H196.705V252.249H196.955V-106.248Z" fill="#000"/>
<path d="M198.851 -106.248H198.601V252.249H198.851V-106.248Z" fill="#000"/>
<path d="M200.752 -106.248H200.502V252.249H200.752V-106.248Z" fill="#000"/>
<path d="M202.653 -106.248H202.403V252.249H202.653V-106.248Z" fill="#000"/>
<path d="M204.554 -106.248H204.304V252.249H204.554V-106.248Z" fill="#000"/>
<path d="M206.451 -106.248H206.201V252.249H206.451V-106.248Z" fill="#000"/>
<path d="M208.352 -106.248H208.102V252.249H208.352V-106.248Z" fill="#000"/>
<path d="M210.253 -106.248H210.003V252.249H210.253V-106.248Z" fill="#000"/>
<path d="M212.154 -106.248H211.904V252.249H212.154V-106.248Z" fill="#000"/>
<path d="M214.05 -106.248H213.801V252.249H214.05V-106.248Z" fill="#000"/>
<path d="M215.951 -106.248H215.702V252.249H215.951V-106.248Z" fill="#000"/>
<path d="M217.852 -106.248H217.603V252.249H217.852V-106.248Z" fill="#000"/>
<path d="M219.749 -106.248H219.499V252.249H219.749V-106.248Z" fill="#000"/>
<path d="M221.65 -106.248H221.4V252.249H221.65V-106.248Z" fill="#000"/>
<path d="M223.551 -106.248H223.301V252.249H223.551V-106.248Z" fill="#000"/>
<path d="M225.452 -106.248H225.202V252.249H225.452V-106.248Z" fill="#000"/>
<path d="M227.349 -106.248H227.099V252.249H227.349V-106.248Z" fill="#000"/>
<path d="M229.25 -106.248H229V252.249H229.25V-106.248Z" fill="#000"/>
<path d="M231.151 -106.248H230.901V252.249H231.151V-106.248Z" fill="#000"/>
<path d="M233.047 -106.248H232.797V252.249H233.047V-106.248Z" fill="#000"/>
<path d="M234.948 -106.248H234.698V252.249H234.948V-106.248Z" fill="#000"/>
<path d="M236.849 -106.248H236.599V252.249H236.849V-106.248Z" fill="#000"/>
<path d="M238.75 -106.248H238.5V252.249H238.75V-106.248Z" fill="#000"/>
<path d="M240.647 -106.248H240.397V252.249H240.647V-106.248Z" fill="#000"/>
<path d="M242.548 -106.248H242.298V252.249H242.548V-106.248Z" fill="#000"/>
<path d="M244.449 -106.248H244.199V252.249H244.449V-106.248Z" fill="#000"/>
<path d="M246.345 -106.248H246.096V252.249H246.345V-106.248Z" fill="#000"/>
<path d="M248.246 -106.248H247.997V252.249H248.246V-106.248Z" fill="#000"/>
<path d="M250.148 -106.248H249.898V252.249H250.148V-106.248Z" fill="#000"/>
<path d="M252.049 -106.248H251.799V252.249H252.049V-106.248Z" fill="#000"/>
<path d="M253.945 -106.248H253.695V252.249H253.945V-106.248Z" fill="#000"/>
<path d="M255.846 -106.248H255.596V252.249H255.846V-106.248Z" fill="#000"/>
<path d="M257.747 -106.248H257.497V252.249H257.747V-106.248Z" fill="#000"/>
<path d="M259.648 -106.248H259.398V252.249H259.648V-106.248Z" fill="#000"/>
</g>
<mask id="mask5_1022_9421" style="mask-type:luminance" maskUnits="userSpaceOnUse" x="162" y="5" width="7" height="7">
<path d="M164.872 11.4156L168.437 7.20947C169.019 6.52296 168.41 5.48166 167.528 5.65906C165.376 6.09198 164.389 7.60597 162.459 9.7262C162.252 9.95403 162.302 10.3146 162.564 10.4771L164.236 11.5157C164.444 11.6445 164.714 11.6019 164.872 11.4156Z" fill="white"/>
</mask>
<g mask="url(#mask5_1022_9421)">
<path d="M163.711 -105.253H163.461V253.243H163.711V-105.253Z" fill="#000"/>
<path d="M165.612 -105.253H165.363V253.243H165.612V-105.253Z" fill="#000"/>
<path d="M167.509 -105.253H167.259V253.243H167.509V-105.253Z" fill="#000"/>
</g>
<mask id="mask6_1022_9421" style="mask-type:luminance" maskUnits="userSpaceOnUse" x="240" y="44" width="10" height="11">
<path d="M246.946 44.4099C246.413 43.957 245.614 44.2086 245.404 44.8949C244.748 47.0444 244.334 47.1322 242.329 49.0159C241.108 50.1636 239.379 52.2644 240.904 53.8448C241.168 54.1176 241.61 54.0234 241.75 53.6633C242.176 52.5671 242.598 51.302 243.392 50.7735C244.568 49.9915 246.689 50.9156 247.843 50.0259C250.605 47.8978 248.867 46.0445 246.946 44.4099Z" fill="white"/>
</mask>
<g mask="url(#mask6_1022_9421)">
<path d="M241.6 -105.253H241.35V253.244H241.6V-105.253Z" fill="#000"/>
<path d="M243.501 -105.253H243.251V253.244H243.501V-105.253Z" fill="#000"/>
<path d="M245.402 -105.253H245.152V253.244H245.402V-105.253Z" fill="#000"/>
<path d="M247.303 -105.253H247.053V253.244H247.303V-105.253Z" fill="#000"/>
<path d="M249.199 -105.253H248.949V253.244H249.199V-105.253Z" fill="#000"/>
</g>
<mask id="mask7_1022_9421" style="mask-type:luminance" maskUnits="userSpaceOnUse" x="242" y="36" width="7" height="5">
<path d="M243.374 37.2951L242.607 39.0984C242.498 39.3543 242.62 39.6499 242.877 39.7556C245.433 40.8062 246.128 41.2743 248.308 40.0407C248.655 39.8444 248.641 39.3388 248.285 39.1604L244.055 37.0442C243.798 36.9155 243.486 37.0305 243.374 37.2951Z" fill="white"/>
</mask>
<g mask="url(#mask7_1022_9421)">
<path d="M242.858 -104.003H242.608V254.494H242.858V-104.003Z" fill="#000"/>
<path d="M244.759 -104.003H244.509V254.494H244.759V-104.003Z" fill="#000"/>
<path d="M246.66 -104.003H246.41V254.494H246.66V-104.003Z" fill="#000"/>
<path d="M248.561 -104.003H248.311V254.494H248.561V-104.003Z" fill="#000"/>
</g>
<mask id="mask8_1022_9421" style="mask-type:luminance" maskUnits="userSpaceOnUse" x="164" y="101" width="10" height="18">
<path d="M164.756 117.216C164.645 115.103 163.415 109.697 164.55 108.164C165.403 107.012 167.938 106.878 169.037 105.947C170.161 104.994 171.046 103.26 171.893 101.925C172.025 101.717 172.342 101.768 172.402 102.008C172.789 103.575 173.581 105.788 173.273 107.098C172.921 108.598 171.17 109.863 170.353 111.236C169.408 112.825 167.844 120.664 164.756 117.216Z" fill="white"/>
</mask>
<g mask="url(#mask8_1022_9421)">
<path d="M165.612 -105.253H165.363V253.244H165.612V-105.253Z" fill="#000"/>
<path d="M167.509 -105.253H167.259V253.244H167.509V-105.253Z" fill="#000"/>
<path d="M169.41 -105.253H169.16V253.244H169.41V-105.253Z" fill="#000"/>
<path d="M171.311 -105.253H171.061V253.244H171.311V-105.253Z" fill="#000"/>
<path d="M173.207 -105.253H172.958V253.244H173.207V-105.253Z" fill="#000"/>
</g>
<mask id="mask9_1022_9421" style="mask-type:luminance" maskUnits="userSpaceOnUse" x="215" y="89" width="21" height="13">
<path d="M215.898 91.0369C217.334 91.9299 219.411 92.7751 220.36 94.1031C220.938 94.9109 220.718 96.5608 221.411 97.2584C222.094 97.9455 224.294 98.1594 225.128 98.4981C227.034 99.2723 228.585 100.798 230.452 101.529C232.439 102.308 233.426 101.892 235.721 101.367C234.736 98.7714 232.008 99.1241 229.857 98.041C227.47 96.8396 227.323 95.3113 225.434 93.3195C224.222 92.0405 215.259 87.8989 215.898 91.0369Z" fill="white"/>
</mask>
<g mask="url(#mask9_1022_9421)">
<path d="M216.904 -105.253H216.654V253.244H216.904V-105.253Z" fill="#000"/>
<path d="M218.805 -105.253H218.555V253.244H218.805V-105.253Z" fill="#000"/>
<path d="M220.702 -105.253H220.452V253.244H220.702V-105.253Z" fill="#000"/>
<path d="M222.603 -105.253H222.353V253.244H222.603V-105.253Z" fill="#000"/>
<path d="M224.504 -105.253H224.254V253.244H224.504V-105.253Z" fill="#000"/>
<path d="M226.405 -105.253H226.155V253.244H226.405V-105.253Z" fill="#000"/>
<path d="M228.301 -105.253H228.052V253.244H228.301V-105.253Z" fill="#000"/>
<path d="M230.202 -105.253H229.953V253.244H230.202V-105.253Z" fill="#000"/>
<path d="M232.103 -105.253H231.854V253.244H232.103V-105.253Z" fill="#000"/>
<path d="M234 -105.253H233.75V253.244H234V-105.253Z" fill="#000"/>
<path d="M235.901 -105.253H235.651V253.244H235.901V-105.253Z" fill="#000"/>
</g>
<mask id="mask10_1022_9421" style="mask-type:luminance" maskUnits="userSpaceOnUse" x="227" y="81" width="9" height="11">
<path d="M233.025 90.0957C233.025 86.3724 234.22 88.0696 235.443 85.373C235.771 84.6483 235.399 83.3926 234.987 82.2287C234.724 81.4844 233.729 81.3519 233.279 82.0008C232.662 82.8914 232.021 83.7904 231.266 84.4611C230.215 85.3938 228.068 85.8004 227.512 87.0219C225.518 91.405 230.307 93.0121 233.025 90.0957Z" fill="white"/>
</mask>
<g mask="url(#mask10_1022_9421)">
<path d="M227.923 -110.746H227.673V247.75H227.923V-110.746Z" fill="#000"/>
<path d="M229.824 -110.746H229.574V247.75H229.824V-110.746Z" fill="#000"/>
<path d="M231.725 -110.746H231.475V247.75H231.725V-110.746Z" fill="#000"/>
<path d="M233.622 -110.746H233.372V247.75H233.622V-110.746Z" fill="#000"/>
<path d="M235.523 -110.746H235.273V247.75H235.523V-110.746Z" fill="#000"/>
</g>
<mask id="mask11_1022_9421" style="mask-type:luminance" maskUnits="userSpaceOnUse" x="234" y="66" width="9" height="17">
<path d="M236.543 67.3235C236.106 68.2498 234.447 70.7384 234.68 71.6711C235.001 72.9612 237.51 73.8332 238.094 75.119C238.383 75.7541 238.972 85.6467 242.134 81.0924C242.156 81.0607 240.904 73.3496 240.633 72.8434C239.89 71.4572 239.009 71.0551 238.479 69.6055C238.188 68.8112 238.515 64.6237 236.543 67.3235Z" fill="white"/>
</mask>
<g mask="url(#mask11_1022_9421)">
<path d="M235.719 -97.7524H235.469V260.744H235.719V-97.7524Z" fill="#000"/>
<path d="M237.62 -97.7524H237.37V260.744H237.62V-97.7524Z" fill="#000"/>
<path d="M239.521 -97.7524H239.271V260.744H239.521V-97.7524Z" fill="#000"/>
<path d="M241.417 -97.7524H241.167V260.744H241.417V-97.7524Z" fill="#000"/>
</g>
<mask id="mask12_1022_9421" style="mask-type:luminance" maskUnits="userSpaceOnUse" x="244" y="87" width="21" height="14">
<path d="M258.243 97.9602C259.058 98.5227 262.412 101.592 263.756 100.308C265.637 98.5104 260.91 95.6998 260.107 95.0079C258.417 93.5516 257.282 90.9732 255.645 89.7345C253.439 88.0654 252.958 90.2898 250.256 89.9635C248.956 89.8067 245.759 86.0217 244.695 88.0998C243.924 89.6061 247.48 91.4652 248.509 91.966C249.416 92.4074 250.92 92.375 251.605 93.0561C252.261 93.7086 252.148 95.34 252.632 96.1407C254.147 98.6455 255.371 98.128 258.243 97.9602Z" fill="white"/>
</mask>
<g mask="url(#mask12_1022_9421)">
<path d="M246.263 -83.2534H246.013V275.243H246.263V-83.2534Z" fill="#000"/>
<path d="M248.164 -83.2534H247.915V275.243H248.164V-83.2534Z" fill="#000"/>
<path d="M250.065 -83.2534H249.816V275.243H250.065V-83.2534Z" fill="#000"/>
<path d="M251.962 -83.2534H251.712V275.243H251.962V-83.2534Z" fill="#000"/>
<path d="M253.863 -83.2534H253.613V275.243H253.863V-83.2534Z" fill="#000"/>
<path d="M255.764 -83.2534H255.514V275.243H255.764V-83.2534Z" fill="#000"/>
<path d="M257.665 -83.2534H257.415V275.243H257.665V-83.2534Z" fill="#000"/>
<path d="M259.561 -83.2534H259.312V275.243H259.561V-83.2534Z" fill="#000"/>
<path d="M261.462 -83.2534H261.213V275.243H261.462V-83.2534Z" fill="#000"/>
<path d="M263.364 -83.2534H263.114V275.243H263.364V-83.2534Z" fill="#000"/>
</g>
<mask id="mask13_1022_9421" style="mask-type:luminance" maskUnits="userSpaceOnUse" x="226" y="100" width="38" height="31">
<path d="M252.645 130.718C252.92 130.718 253.183 130.608 253.376 130.414C257.073 126.708 264.667 121.777 263.05 115.966C262.377 113.547 259.695 111.953 258.801 109.598C257.706 106.712 259.225 103.569 256.482 101.371C255.861 102.484 250.954 111.164 249.854 105.142C249.547 103.457 252.577 102.894 250.773 100.832C249.995 99.9434 247.445 99.9378 246.453 100.562C245.071 101.432 244.445 103.882 243.157 104.745C242.66 105.078 241.551 104.324 240.99 104.68C240.399 105.055 240.012 105.859 239.494 106.34C238.183 107.557 237.198 109.51 235.72 110.527C234.319 111.492 231.959 111.416 230.676 112.523C227.199 115.525 229.695 119.165 228.448 122.659C227.663 124.858 224.204 127.181 229.079 127.167C232.907 127.156 236.698 124.055 240.529 123.909C243.833 123.784 241.805 124.812 243.414 126.157C243.804 126.483 243.472 127.002 243.933 127.314C244.447 127.661 246.317 127.314 246.98 127.314L246.598 130.091C246.552 130.422 246.809 130.718 247.144 130.718L252.645 130.718Z" fill="white"/>
</mask>
<g mask="url(#mask13_1022_9421)">
<path d="M227.69 -104.997H227.441V253.499H227.69V-104.997Z" fill="#000"/>
<path d="M229.591 -104.997H229.342V253.499H229.591V-104.997Z" fill="#000"/>
<path d="M231.492 -104.997H231.243V253.499H231.492V-104.997Z" fill="#000"/>
<path d="M233.394 -104.997H233.144V253.499H233.394V-104.997Z" fill="#000"/>
<path d="M235.29 -104.997H235.04V253.499H235.29V-104.997Z" fill="#000"/>
<path d="M237.191 -104.997H236.941V253.499H237.191V-104.997Z" fill="#000"/>
<path d="M239.092 -104.997H238.842V253.499H239.092V-104.997Z" fill="#000"/>
<path d="M240.989 -104.997H240.739V253.499H240.989V-104.997Z" fill="#000"/>
<path d="M242.89 -104.997H242.64V253.499H242.89V-104.997Z" fill="#000"/>
<path d="M244.791 -104.997H244.541V253.499H244.791V-104.997Z" fill="#000"/>
<path d="M246.692 -104.997H246.442V253.499H246.692V-104.997Z" fill="#000"/>
<path d="M248.588 -104.997H248.339V253.499H248.588V-104.997Z" fill="#000"/>
<path d="M250.489 -104.997H250.24V253.499H250.489V-104.997Z" fill="#000"/>
<path d="M252.39 -104.997H252.141V253.499H252.39V-104.997Z" fill="#000"/>
<path d="M254.287 -104.997H254.037V253.499H254.287V-104.997Z" fill="#000"/>
<path d="M256.188 -104.997H255.938V253.499H256.188V-104.997Z" fill="#000"/>
<path d="M258.089 -104.997H257.839V253.499H258.089V-104.997Z" fill="#000"/>
<path d="M259.99 -104.997H259.74V253.499H259.99V-104.997Z" fill="#000"/>
<path d="M261.887 -104.997H261.637V253.499H261.887V-104.997Z" fill="#000"/>
</g>
<mask id="mask14_1022_9421" style="mask-type:luminance" maskUnits="userSpaceOnUse" x="246" y="132" width="6" height="6">
<path d="M247.662 137.663L251.359 135.851C251.803 135.633 251.905 135.043 251.558 134.689L249.966 133.064C249.662 132.753 249.155 132.778 248.882 133.117C247.917 134.316 246.97 135.407 246.635 136.842C246.496 137.44 247.11 137.933 247.662 137.663Z" fill="white"/>
</mask>
<g mask="url(#mask14_1022_9421)">
<path d="M251.848 -105.253H251.598V253.243H251.848V-105.253Z" fill="#000"/>
<path d="M249.951 -105.253H249.702V253.243H249.951V-105.253Z" fill="#000"/>
<path d="M248.05 -105.253H247.801V253.243H248.05V-105.253Z" fill="#000"/>
</g>
<mask id="mask15_1022_9421" style="mask-type:luminance" maskUnits="userSpaceOnUse" x="263" y="126" width="17" height="14">
<path d="M263.754 135.998C266.85 134.641 271.924 133.502 274.305 131.198C275.403 130.135 275.689 126.428 277.2 126.377C278.676 126.327 279.79 129.415 279.433 130.568C279.092 131.672 275.493 132.824 274.467 133.508C272.214 135.01 272.434 135.384 270.823 137.626C269.444 139.545 268.466 140.399 265.528 139.52C263.908 139.035 262.26 138.001 263.754 135.998Z" fill="white"/>
</mask>
<g mask="url(#mask15_1022_9421)">
<path d="M279.671 -105.253H279.421V253.243H279.671V-105.253Z" fill="#000"/>
<path d="M277.77 -105.253H277.52V253.243H277.77V-105.253Z" fill="#000"/>
<path d="M275.873 -105.253H275.623V253.243H275.873V-105.253Z" fill="#000"/>
<path d="M273.972 -105.253H273.722V253.243H273.972V-105.253Z" fill="#000"/>
<path d="M272.071 -105.253H271.821V253.243H272.071V-105.253Z" fill="#000"/>
<path d="M270.17 -105.253H269.92V253.243H270.17V-105.253Z" fill="#000"/>
<path d="M268.273 -105.253H268.024V253.243H268.273V-105.253Z" fill="#000"/>
<path d="M266.372 -105.253H266.123V253.243H266.372V-105.253Z" fill="#000"/>
<path d="M264.471 -105.253H264.222V253.243H264.471V-105.253Z" fill="#000"/>
</g>
<mask id="mask16_1022_9421" style="mask-type:luminance" maskUnits="userSpaceOnUse" x="235" y="86" width="6" height="8">
<path d="M240.297 86.5749C238.161 87.835 235.63 88.3193 235.722 90.9768C235.805 93.386 238.458 94.3294 240.297 92.3268C239.69 91.5638 239.084 90.8007 238.478 90.0377C239.997 88.991 242.029 88.474 240.297 86.5749Z" fill="white"/>
</mask>
<g mask="url(#mask16_1022_9421)">
<path d="M236.133 -106.248H235.884V252.249H236.133V-106.248Z" fill="#000"/>
<path d="M238.034 -106.248H237.785V252.249H238.034V-106.248Z" fill="#000"/>
<path d="M239.931 -106.248H239.681V252.249H239.931V-106.248Z" fill="#000"/>
</g>
<g style="mix-blend-mode:difference" opacity="0.9">
<g style="mix-blend-mode:difference">
<ellipse cx="55.349" cy="38.3788" rx="1.60534" ry="1.60655" fill="#101010"/>
</g>
<g style="mix-blend-mode:difference">
<ellipse cx="198.937" cy="60.6919" rx="1.60533" ry="1.60655" fill="#101010"/>
</g>
<g style="mix-blend-mode:difference">
<ellipse cx="29.4853" cy="58.0143" rx="0.802668" ry="0.80327" fill="#101010"/>
</g>
<g style="mix-blend-mode:difference">
<ellipse cx="52.8964" cy="53.7748" rx="0.802666" ry="0.803276" fill="#101010"/>
</g>
<g style="mix-blend-mode:difference">
<ellipse cx="48.883" cy="48.8659" rx="0.401331" ry="0.401634" fill="#101010"/>
</g>
<g style="mix-blend-mode:difference">
<ellipse cx="75.4156" cy="90.1454" rx="0.802666" ry="0.803268" fill="#101010"/>
</g>
<g style="mix-blend-mode:difference">
<ellipse cx="34.1674" cy="67.1628" rx="0.401331" ry="0.401638" fill="#101010"/>
</g>
<g style="mix-blend-mode:difference">
<ellipse cx="248.212" cy="48.8659" rx="0.401329" ry="0.401634" fill="#101010"/>
</g>
<g style="mix-blend-mode:difference">
<ellipse cx="124.69" cy="52.8822" rx="0.401333" ry="0.401634" fill="#101010"/>
</g>
<g style="mix-blend-mode:difference">
<ellipse cx="135.17" cy="37.9324" rx="0.802666" ry="0.80327" fill="#101010"/>
</g>
<g style="mix-blend-mode:difference">
<ellipse cx="219.45" cy="58.0143" rx="0.802666" ry="0.80327" fill="#101010"/>
</g>
<g style="mix-blend-mode:difference">
<ellipse cx="248.881" cy="107.55" rx="0.802666" ry="0.803268" fill="#101010"/>
</g>
<g style="mix-blend-mode:difference">
<ellipse cx="146.095" cy="30.5691" rx="1.20399" ry="1.20492" fill="#101010"/>
</g>
<g style="mix-blend-mode:difference">
<ellipse cx="192.248" cy="53.5517" rx="0.802658" ry="0.80327" fill="#101010"/>
</g>
<g style="mix-blend-mode:difference">
<ellipse cx="223.686" cy="54.6674" rx="0.401329" ry="0.401634" fill="#101010"/>
</g>
<g style="mix-blend-mode:difference">
<ellipse cx="255.346" cy="92.1536" rx="0.401329" ry="0.401634" fill="#101010"/>
</g>
<g style="mix-blend-mode:difference">
<ellipse cx="214.767" cy="47.9734" rx="0.401337" ry="0.401634" fill="#101010"/>
</g>
</g>
</g>
</svg>
