<svg width="37" height="27" viewBox="0 0 37 27" fill="none" xmlns="http://www.w3.org/2000/svg">
<path d="M11.4821 13.4981L11.4953 18.3481L15.6163 20.7731V23.6126L9.0835 19.7811V12.0798L11.4821 13.4981ZM11.4821 8.64806V11.4743L9.08203 10.0546V7.22833L11.4821 5.80859L13.8938 7.22833L11.4821 8.64806ZM17.3374 7.22833L19.7374 5.80859L22.1492 7.22833L19.7374 8.64806L17.3374 7.22833Z" fill="#EDEAF3"/>
<path d="M13.2168 17.3428V14.5034L15.6168 15.9231V18.7493L13.2168 17.3428ZM17.3378 21.7902L19.7379 23.2099L22.1497 21.7902V24.6164L19.7379 26.0361L17.3378 24.6164V21.7902ZM25.5917 7.22833L27.9917 5.80859L30.4035 7.22833V10.0546L27.9917 11.4743V8.64806L25.5917 7.22833ZM27.9917 18.3481L28.005 13.4981L30.405 12.0784V19.7796L23.8722 23.6111V20.7717L27.9917 18.3481Z" fill="#EDEAF3"/>
<path d="M26.2701 17.3414L23.8701 18.7479V15.9217L26.2701 14.502V17.3414Z" fill="#EDEAF3"/>
<path d="M26.2697 9.65619L26.283 12.4957L22.1501 14.9207V19.7825L19.7501 21.189L17.3501 19.7825V14.9207L13.2173 12.4957V9.65619L15.6276 8.23646L19.7354 10.6732L23.8682 8.23646L26.28 9.65619H26.2697ZM13.2158 4.80764L19.7369 0.962891L26.2697 4.80764L23.8697 6.22737L19.7369 3.7906L15.6158 6.22737L13.2158 4.80764Z" fill="#EDEAF3"/>
<rect x="25.3535" y="15.0918" width="10.9432" height="10.9432" rx="5.47162" fill="#2E2D30"/>
<path d="M30.9346 16.6558C30.6464 16.648 30.365 16.6714 30.0944 16.7222C28.2849 17.0642 26.917 18.654 26.917 20.5624C26.917 22.4707 28.2858 24.0605 30.0953 24.4025C30.3318 24.4474 30.576 24.4709 30.8252 24.4709C33.0363 24.4709 34.8184 22.6339 34.7305 20.4031C34.6494 18.3638 32.9747 16.7105 30.9346 16.6558ZM31.002 23.6843C30.9356 23.6882 30.8926 23.612 30.9336 23.5592C31.5765 22.7316 31.9605 21.6919 31.9605 20.5624C31.9605 19.4328 31.5775 18.3921 30.9336 17.5655C30.8926 17.5127 30.9346 17.4365 31.0011 17.4404C32.6464 17.5323 33.9518 18.8944 33.9518 20.5624C33.9518 22.2303 32.6474 23.5924 31.002 23.6843Z" fill="#EDEAF3"/>
</svg>
