<svg width="37" height="27" viewBox="0 0 37 27" fill="none" xmlns="http://www.w3.org/2000/svg">
<path d="M11.4821 13.4981L11.4953 18.3481L15.6163 20.7731V23.6126L9.0835 19.7811V12.0798L11.4821 13.4981ZM11.4821 8.64806V11.4743L9.08203 10.0546V7.22833L11.4821 5.80859L13.8938 7.22833L11.4821 8.64806ZM17.3374 7.22833L19.7374 5.80859L22.1492 7.22833L19.7374 8.64806L17.3374 7.22833Z" fill="#101010"/>
<path d="M13.2163 17.3428V14.5034L15.6163 15.9231V18.7493L13.2163 17.3428ZM17.3374 21.7902L19.7374 23.2099L22.1492 21.7902V24.6164L19.7374 26.0361L17.3374 24.6164V21.7902ZM25.5912 7.22833L27.9912 5.80859L30.403 7.22833V10.0546L27.9912 11.4743V8.64806L25.5912 7.22833ZM27.9912 18.3481L28.0045 13.4981L30.4045 12.0784V19.7796L23.8717 23.6111V20.7717L27.9912 18.3481Z" fill="#101010"/>
<path d="M26.2701 17.3414L23.8701 18.7479V15.9217L26.2701 14.502V17.3414Z" fill="#101010"/>
<path d="M26.2702 9.65619L26.2834 12.4957L22.1506 14.9207V19.7825L19.7506 21.189L17.3506 19.7825V14.9207L13.2178 12.4957V9.65619L15.6281 8.23646L19.7359 10.6732L23.8687 8.23646L26.2805 9.65619H26.2702ZM13.2163 4.80764L19.7374 0.962891L26.2702 4.80764L23.8702 6.22737L19.7374 3.7906L15.6163 6.22737L13.2163 4.80764Z" fill="#101010"/>
<rect x="25.354" y="15.0918" width="10.9432" height="10.9432" rx="5.47162" fill="#EDEAF3"/>
<path d="M30.9351 16.6558C30.6469 16.648 30.3655 16.6714 30.0948 16.7222C28.2854 17.0642 26.9175 18.654 26.9175 20.5624C26.9175 22.4707 28.2863 24.0605 30.0958 24.4025C30.3323 24.4474 30.5765 24.4709 30.8257 24.4709C33.0367 24.4709 34.8189 22.6339 34.731 20.4031C34.6499 18.3638 32.9752 16.7105 30.9351 16.6558ZM31.0025 23.6843C30.9361 23.6882 30.8931 23.612 30.9341 23.5592C31.577 22.7316 31.961 21.6919 31.961 20.5624C31.961 19.4328 31.578 18.3921 30.9341 17.5655C30.8931 17.5127 30.9351 17.4365 31.0016 17.4404C32.6469 17.5323 33.9522 18.8944 33.9522 20.5624C33.9522 22.2303 32.6479 23.5924 31.0025 23.6843Z" fill="#101010"/>
</svg>
