<svg width="20" height="25" viewBox="0 0 20 25" fill="none" xmlns="http://www.w3.org/2000/svg">
<path d="M6.87109 0.804688V8.77019L13.6032 11.7789L6.87109 0.804688Z" fill="#EDEAF3" fill-opacity="0.6"/>
<path d="M6.87077 0.804688L0.138672 11.7789L6.87077 8.77019V0.804688Z" fill="#EDEAF3"/>
<path d="M6.87109 16.9374V22.3499L13.6071 13.0293L6.87109 16.9374Z" fill="#EDEAF3" fill-opacity="0.6"/>
<path d="M6.87077 22.3499V16.9374L0.138672 13.0293L6.87077 22.3499Z" fill="#EDEAF3"/>
<path d="M6.87109 15.6805L13.6032 11.7723L6.87109 8.76367V15.6805Z" fill="#E2DFE9" fill-opacity="0.2"/>
<path d="M0.138672 11.7723L6.87077 15.6805V8.76367L0.138672 11.7723Z" fill="#EDEAF3" fill-opacity="0.6"/>
<rect x="8.55664" y="13.0918" width="10.9432" height="10.9432" rx="5.47162" fill="#2E2D30"/>
<path d="M14.1377 14.6558C13.8495 14.648 13.5681 14.6714 13.2975 14.7222C11.488 15.0642 10.1201 16.654 10.1201 18.5624C10.1201 20.4707 11.489 22.0605 13.2985 22.4025C13.5349 22.4474 13.7792 22.4709 14.0283 22.4709C16.2394 22.4709 18.0215 20.6339 17.9336 18.4031C17.8525 16.3638 16.1778 14.7105 14.1377 14.6558ZM14.2052 21.6843C14.1387 21.6882 14.0957 21.612 14.1368 21.5592C14.7797 20.7316 15.1637 19.6919 15.1637 18.5624C15.1637 17.4328 14.7806 16.3921 14.1368 15.5655C14.0957 15.5127 14.1377 15.4365 14.2042 15.4404C15.8495 15.5323 17.1549 16.8944 17.1549 18.5624C17.1549 20.2303 15.8505 21.5924 14.2052 21.6843Z" fill="#EDEAF3"/>
</svg>
