<svg xmlns="http://www.w3.org/2000/svg" version="1.1" xmlns:xlink="http://www.w3.org/1999/xlink" xmlns:svgjs="http://svgjs.com/svgjs" width="88" height="88"><svg width="88" height="88" viewBox="0 0 88 88" xmlns="http://www.w3.org/2000/svg">
<path fill="#101010" style="mix-blend-mode: difference" d="M45.2309 0.016588C41.986 -0.0714174 38.8181 0.192599 35.7711 0.764634C15.3996 4.61487 0 22.513 0 43.9973C0 65.4816 15.4106 83.3797 35.7821 87.2299C38.4441 87.736 41.194 88 43.9989 88C68.8913 88 88.9548 67.3187 87.9649 42.2042C87.0519 19.2458 68.1983 0.632626 45.2309 0.016588ZM45.9899 79.1444C45.2419 79.1885 44.7579 78.3304 45.2199 77.7364C52.4577 68.4188 56.7806 56.7141 56.7806 43.9973C56.7806 31.2805 52.4687 19.5648 45.2199 10.2582C44.7579 9.66418 45.2309 8.80613 45.9789 8.85013C64.5024 9.88419 79.1981 25.2191 79.1981 43.9973C79.1981 62.7754 64.5134 78.1104 45.9899 79.1444Z"></path>
</svg><style>@media (prefers-color-scheme: light) { :root { filter: none; } }
@media (prefers-color-scheme: dark) { :root { filter: invert(100%); } }
</style></svg>