<svg width="200" height="200" viewBox="0 0 200 200" fill="none" xmlns="http://www.w3.org/2000/svg">
<path fill-rule="evenodd" clip-rule="evenodd" d="M81.298 1.7378C88.2229 0.437724 95.4227 -0.162312 102.798 0.0377C154.996 1.43779 197.845 43.7404 199.92 95.9186C202.17 152.997 156.571 200 99.9976 200C93.6227 200 87.3729 199.4 81.323 198.25C35.0242 189.499 0 148.822 0 99.9939C0 51.1658 34.9992 10.4883 81.298 1.7378ZM102.773 176.674C101.723 178.024 102.822 179.974 104.522 179.874C146.621 177.524 179.996 142.671 179.996 99.9939C179.996 57.3162 146.596 22.4641 104.497 20.1139C102.798 20.0139 101.723 21.9641 102.773 23.3141C119.247 44.4654 129.047 71.0921 129.047 99.9939C129.047 128.896 119.222 155.497 102.773 176.674Z" fill="#101010"/>
</svg>
