<svg width="1512" height="350" viewBox="0 0 1512 350" fill="none" xmlns="http://www.w3.org/2000/svg">
<path fill-rule="evenodd" clip-rule="evenodd" d="M555.238 103.004C560.313 102.051 565.589 101.612 570.993 101.758C609.244 102.784 640.643 133.779 642.164 172.009C643.812 213.83 610.398 248.269 568.941 248.269C564.27 248.269 559.69 247.829 555.257 246.986C521.329 240.575 495.664 210.771 495.664 174.995C495.664 139.219 521.311 109.415 555.238 103.004ZM570.975 231.178C570.205 232.167 571.011 233.596 572.257 233.522C603.107 231.8 627.563 206.265 627.563 174.995C627.563 143.726 603.089 118.19 572.239 116.468C570.993 116.394 570.205 117.823 570.975 118.813C583.047 134.31 590.228 153.819 590.228 174.995C590.228 196.171 583.029 215.662 570.975 231.178Z" fill="#101010"/>
<path d="M692.223 228.906V121.098H728.65C737.072 121.098 743.986 122.536 749.39 125.414C754.795 128.257 758.795 132.17 761.392 137.153C763.989 142.136 765.288 147.804 765.288 154.156C765.288 160.508 763.989 166.14 761.392 171.054C758.795 175.967 754.812 179.827 749.443 182.635C744.074 185.407 737.213 186.793 728.861 186.793H699.382V175.002H728.439C734.195 175.002 738.827 174.159 742.337 172.475C745.881 170.79 748.443 168.404 750.022 165.316C751.636 162.192 752.444 158.472 752.444 154.156C752.444 149.839 751.636 146.067 750.022 142.838C748.408 139.61 745.828 137.118 742.284 135.363C738.739 133.573 734.054 132.679 728.229 132.679H705.278V228.906H692.223ZM742.968 180.476L769.499 228.906H754.339L728.229 180.476H742.968Z" fill="#71B1FF"/>
<path d="M836.653 195.32V148.258H848.885V227.87H836.653V214.394H835.823C833.957 218.437 831.055 221.875 827.116 224.708C823.177 227.507 818.201 228.906 812.189 228.906C807.213 228.906 802.79 227.818 798.92 225.641C795.05 223.43 792.009 220.113 789.798 215.69C787.586 211.232 786.48 205.617 786.48 198.845V148.258H798.713V198.015C798.713 203.82 800.337 208.451 803.585 211.906C806.867 215.361 811.048 217.089 816.128 217.089C819.168 217.089 822.261 216.312 825.405 214.757C828.584 213.202 831.245 210.818 833.387 207.604C835.564 204.391 836.653 200.296 836.653 195.32Z" fill="#71B1FF"/>
<path d="M925.787 165.464L914.799 168.574C914.108 166.743 913.089 164.963 911.741 163.235C910.428 161.473 908.631 160.022 906.351 158.882C904.07 157.741 901.151 157.171 897.592 157.171C892.719 157.171 888.659 158.294 885.411 160.54C882.198 162.752 880.591 165.568 880.591 168.989C880.591 172.029 881.697 174.431 883.908 176.193C886.12 177.955 889.575 179.424 894.274 180.599L906.092 183.501C913.21 185.229 918.514 187.872 922.004 191.431C925.494 194.956 927.239 199.5 927.239 205.063C927.239 209.624 925.926 213.701 923.3 217.295C920.708 220.888 917.08 223.722 912.415 225.795C907.75 227.868 902.325 228.905 896.14 228.905C888.02 228.905 881.299 227.143 875.978 223.618C870.657 220.094 867.288 214.945 865.871 208.173L877.481 205.27C878.587 209.555 880.677 212.768 883.753 214.911C886.863 217.053 890.923 218.124 895.933 218.124C901.634 218.124 906.161 216.915 909.513 214.496C912.899 212.043 914.592 209.106 914.592 205.685C914.592 202.92 913.624 200.605 911.689 198.739C909.754 196.839 906.783 195.422 902.775 194.489L889.506 191.379C882.215 189.652 876.859 186.974 873.438 183.346C870.052 179.683 868.359 175.105 868.359 169.611C868.359 165.119 869.62 161.145 872.143 157.689C874.7 154.234 878.172 151.522 882.561 149.552C886.983 147.582 891.994 146.598 897.592 146.598C905.47 146.598 911.655 148.325 916.147 151.781C920.673 155.236 923.887 159.797 925.787 165.464Z" fill="#71B1FF"/>
<path d="M955.622 199.882L955.414 184.747H957.902L992.732 149.295H1007.87L970.756 186.821H969.719L955.622 199.882ZM944.219 228.907V122.758H956.451V228.907H944.219ZM994.806 228.907L963.707 189.516L972.415 181.016L1010.35 228.907H994.806Z" fill="#71B1FF"/>
</svg>
